<svg width="16" height="15" viewBox="0 0 16 15" fill="none" xmlns="http://www.w3.org/2000/svg">
<path d="M7.28753 13.8699H11.4315C12.3873 13.8699 13.303 13.0945 13.4634 12.1521L14.3524 6.83179C14.4593 6.17677 14.1251 5.30117 13.6105 4.88677L8.97855 1.18388C8.26337 0.609073 7.10708 0.609067 6.39859 1.17719L1.76668 4.88677C1.24534 5.30117 0.911139 6.17677 1.02476 6.83179L1.21191 7.95463" stroke="white" stroke-width="1.5" stroke-linecap="round" stroke-linejoin="round"/>
<path d="M1.00258 11.9918C2.17894 12.0185 2.981 12.8206 3.00773 13.9969" stroke="white" stroke-width="1.5" stroke-linecap="round" stroke-linejoin="round"/>
<path d="M5.01289 13.9969C5.00621 13.489 4.91932 13.0144 4.76559 12.58C4.37124 11.4638 3.52907 10.6283 2.41955 10.2339C1.9851 10.0802 1.51055 9.9933 1.00258 9.98662" stroke="white" stroke-width="1.5" stroke-linecap="round" stroke-linejoin="round"/>
<path d="M1.00088 13.9973H1.00689" stroke="white" stroke-width="2" stroke-linecap="round" stroke-linejoin="round"/>
</svg>
