<svg width="15" height="15" viewBox="0 0 15 15" fill="none" xmlns="http://www.w3.org/2000/svg">
<path d="M10.6793 12.1655H4.36822C4.08623 12.1655 3.77068 11.944 3.67669 11.6754L0.897144 3.90076C0.501025 2.78626 0.964283 2.44385 1.91765 3.12867L4.53606 5.00184C4.97247 5.30396 5.46929 5.14954 5.65728 4.65943L6.83892 1.51062C7.2149 0.503541 7.83929 0.503541 8.21527 1.51062L9.39691 4.65943C9.5849 5.14954 10.0817 5.30396 10.5114 5.00184L12.9687 3.24951C14.0161 2.49756 14.5196 2.88025 14.0899 4.09546L11.3775 11.6889C11.2768 11.944 10.9612 12.1655 10.6793 12.1655Z" stroke="#141414" stroke-width="1.5" stroke-linecap="round" stroke-linejoin="round"/>
<path d="M3.83163 14.1933H11.2169" stroke="#141414" stroke-width="1.5" stroke-linecap="round" stroke-linejoin="round"/>
<path d="M5.84579 8.82204H9.20273" stroke="#141414" stroke-width="1.5" stroke-linecap="round" stroke-linejoin="round"/>
</svg>
