<svg width="15" height="15" viewBox="0 0 15 15" fill="none" xmlns="http://www.w3.org/2000/svg">
<path d="M8.46279 9.51912H2.37621C1.14946 9.51912 0.367577 8.20475 0.960731 7.12629L2.53124 4.26835L4.00065 1.59242C4.61402 0.480253 6.21823 0.480253 6.83161 1.59242L8.30776 4.26835L9.0155 5.55577L9.87827 7.12629C10.4714 8.20475 9.68954 9.51912 8.46279 9.51912Z" stroke="black" stroke-width="1.5" stroke-linecap="round" stroke-linejoin="round"/>
<path d="M14.2404 9.85617C14.2404 12.276 12.2789 14.2374 9.85914 14.2374C7.43934 14.2374 5.47788 12.276 5.47788 9.85617C5.47788 9.74159 5.48462 9.63374 5.49136 9.51915H8.46388C9.69063 9.51915 10.4725 8.20479 9.87936 7.12632L9.01659 5.5558C9.2862 5.50188 9.5693 5.47492 9.85914 5.47492C12.2789 5.47492 14.2404 7.43637 14.2404 9.85617Z" stroke="black" stroke-width="1.5" stroke-linecap="round" stroke-linejoin="round"/>
</svg>
