<svg width="14" height="15" viewBox="0 0 14 15" fill="none" xmlns="http://www.w3.org/2000/svg">
<path d="M5.01251 9.32011L6.0237 10.3313L8.72021 7.63479" stroke="black" stroke-width="1.5" stroke-linecap="round" stroke-linejoin="round"/>
<path d="M5.47597 3.4554H8.17248C9.52074 3.4554 9.52074 2.78127 9.52074 2.10714C9.52074 0.758887 8.84661 0.758887 8.17248 0.758887H5.47597C4.80184 0.758887 4.12772 0.758887 4.12772 2.10714C4.12772 3.4554 4.80184 3.4554 5.47597 3.4554Z" stroke="black" stroke-width="1.5" stroke-miterlimit="10" stroke-linecap="round" stroke-linejoin="round"/>
<path d="M9.52205 2.12064C11.7669 2.24198 12.8927 3.07116 12.8927 6.15192V10.1967C12.8927 12.8932 12.2186 14.2415 8.84793 14.2415H4.80316C1.43252 14.2415 0.758394 12.8932 0.758394 10.1967V6.15192C0.758394 3.0779 1.88419 2.24198 4.12903 2.12064" stroke="black" stroke-width="1.5" stroke-miterlimit="10" stroke-linecap="round" stroke-linejoin="round"/>
</svg>
