<svg width="14" height="14" viewBox="0 0 14 14" fill="none" xmlns="http://www.w3.org/2000/svg">
<path d="M1.16516 12.8349C1.71857 13.3883 2.61203 13.3883 3.16544 12.8349L11.8333 4.16705C12.3867 3.61364 12.3867 2.72018 11.8333 2.16677C11.2799 1.61336 10.3864 1.61336 9.83304 2.16677L1.16516 10.8346C0.611752 11.3881 0.611752 12.2815 1.16516 12.8349Z" stroke="#FFF8F2" stroke-width="1.5" stroke-linecap="round" stroke-linejoin="round"/>
<path d="M10.8414 5.16039L8.84108 3.16011" stroke="#FFF8F2" stroke-width="1.5" stroke-linecap="round" stroke-linejoin="round"/>
<path d="M4.50063 0.793444L5.50077 0.50007L5.20739 1.50021L5.50077 2.50035L4.50063 2.20697L3.50049 2.50035L3.79386 1.50021L3.50049 0.50007L4.50063 0.793444Z" stroke="#FFF8F2" stroke-linecap="round" stroke-linejoin="round"/>
<path d="M1.83229 4.794L2.83243 4.50063L2.53905 5.50077L2.83243 6.50091L1.83229 6.20753L0.832147 6.50091L1.12552 5.50077L0.832147 4.50063L1.83229 4.794Z" stroke="#FFF8F2" stroke-linecap="round" stroke-linejoin="round"/>
<path d="M11.8337 8.12747L12.8338 7.8341L12.5404 8.83424L12.8338 9.83438L11.8337 9.54101L10.8335 9.83438L11.1269 8.83424L10.8335 7.8341L11.8337 8.12747Z" stroke="#FFF8F2" stroke-linecap="round" stroke-linejoin="round"/>
</svg>
