<svg width="15" height="15" viewBox="0 0 15 15" fill="none" xmlns="http://www.w3.org/2000/svg">
<path d="M13.5278 12.219V2.78087C13.5278 1.43257 12.8536 0.758419 11.5053 0.758419H8.80872C7.46042 0.758419 6.78627 1.43257 6.78627 2.78087V12.219C6.78627 13.5673 7.46042 14.2414 8.80872 14.2414H11.5053C12.8536 14.2414 13.5278 13.5673 13.5278 12.219Z" stroke="#FFF8F2" stroke-width="1.5" stroke-linecap="round"/>
<path d="M6.78627 3.45485H10.157" stroke="#FFF8F2" stroke-width="1.5" stroke-linecap="round"/>
<path d="M6.78627 11.5447H9.48287" stroke="#FFF8F2" stroke-width="1.5" stroke-linecap="round"/>
<path d="M6.78627 8.81415L10.157 8.84786" stroke="#FFF8F2" stroke-width="1.5" stroke-linecap="round"/>
<path d="M6.78627 6.15129H8.80872" stroke="#FFF8F2" stroke-width="1.5" stroke-linecap="round"/>
<path d="M2.7539 0.758419C1.65504 0.758419 0.758419 1.65504 0.758419 2.74716V11.4841C0.758419 11.7875 0.886507 12.2459 1.04156 12.5089L1.59436 13.4257C2.22807 14.4841 3.273 14.4841 3.9067 13.4257L4.4595 12.5089C4.61456 12.2459 4.74264 11.7875 4.74264 11.4841V2.74716C4.74264 1.65504 3.84602 0.758419 2.7539 0.758419Z" stroke="#FFF8F2" stroke-width="1.5" stroke-linecap="round"/>
<path d="M4.74264 4.12884H0.758419" stroke="#FFF8F2" stroke-width="1.5" stroke-linecap="round"/>
</svg>
