<svg width="24" height="24" viewBox="0 0 24 24" fill="none" xmlns="http://www.w3.org/2000/svg">
<path d="M12.0156 1.99902C6.49263 1.99902 2.01562 6.47602 2.01562 11.999C2.01562 16.814 5.46063 20.888 10.0166 21.804L10.0156 14.999H8.01562V11.999H10.0156V8.99902C10.0266 7.36502 11.3166 6.01802 13.0156 5.99902H16.0156V8.99902C16.0156 8.99902 14.3116 8.99902 14.0156 8.99902C13.4966 8.99802 13.0156 9.42902 13.0156 9.99902V11.999H16.0156L15.0156 14.999H13.0156L13.0226 21.961C18.0546 21.439 22.0156 17.169 22.0156 11.999C22.0156 6.47602 17.5386 1.99902 12.0156 1.99902Z" fill="#FFF8F2"/>
</svg>
