<svg width="15" height="15" viewBox="0 0 15 15" fill="none" xmlns="http://www.w3.org/2000/svg">
<path d="M6.15061 2.44339V11.5429C6.15061 12.2709 5.85402 12.9382 5.38219 13.4235L5.35524 13.4504C5.29458 13.5111 5.22718 13.5718 5.16651 13.619C4.9643 13.7942 4.73512 13.929 4.4992 14.0234C4.42506 14.0571 4.35092 14.084 4.27678 14.111C4.0139 14.1986 3.73081 14.2391 3.45445 14.2391C3.27246 14.2391 3.09048 14.2188 2.91523 14.1851C2.8276 14.1649 2.73997 14.1447 2.65234 14.1178C2.5445 14.084 2.4434 14.0503 2.34229 14.0032C2.34229 13.9964 2.34228 13.9964 2.33554 14.0032C2.14681 13.9088 1.96483 13.8009 1.79632 13.6729L1.78957 13.6661C1.70195 13.5987 1.62107 13.5313 1.54693 13.4504C1.47278 13.3696 1.39863 13.2887 1.32448 13.2011C1.19642 13.0325 1.08858 12.8506 0.994212 12.6618C1.00095 12.6551 1.00095 12.6551 0.994212 12.6551C0.994212 12.6551 0.994205 12.6483 0.987465 12.6416C0.947022 12.5472 0.913318 12.4461 0.879616 12.345C0.852654 12.2574 0.832429 12.1698 0.812208 12.0821C0.778506 11.9069 0.758294 11.7249 0.758294 11.5429V2.44339C0.758294 1.43233 1.43233 0.758294 2.44339 0.758294H4.46551C5.47657 0.758294 6.15061 1.43233 6.15061 2.44339Z" stroke="#FFF8F2" stroke-width="1.5" stroke-linecap="round" stroke-linejoin="round"/>
<path d="M14.2404 10.5319V12.554C14.2404 13.565 13.5664 14.2391 12.5553 14.2391H3.45577C3.73212 14.2391 4.01522 14.1986 4.27809 14.111C4.35224 14.084 4.42637 14.0571 4.50052 14.0234C4.73643 13.929 4.96562 13.7942 5.16783 13.619C5.22849 13.5718 5.2959 13.5111 5.35656 13.4504L5.38351 13.4235L9.96699 8.84676H12.5553C13.5664 8.84676 14.2404 9.5208 14.2404 10.5319Z" stroke="#FFF8F2" stroke-width="1.5" stroke-linecap="round" stroke-linejoin="round"/>
<path d="M2.65345 14.1177C2.24903 13.9964 1.86484 13.7739 1.54804 13.4504C1.2245 13.1336 1.00205 12.7494 0.880727 12.345C1.1436 13.1875 1.8109 13.8548 2.65345 14.1177Z" stroke="#FFF8F2" stroke-width="1.5" stroke-linecap="round" stroke-linejoin="round"/>
<path d="M11.7932 7.01975L9.96657 8.8464L5.3831 13.4231C5.85492 12.9378 6.15151 12.2705 6.15151 11.5426V5.03134L7.97815 3.2047C8.69263 2.49022 9.64977 2.49022 10.3643 3.2047L11.7932 4.63366C12.5077 5.34814 12.5077 6.30527 11.7932 7.01975Z" stroke="#FFF8F2" stroke-width="1.5" stroke-linecap="round" stroke-linejoin="round"/>
<path d="M3.45445 12.217C3.82671 12.217 4.12849 11.9152 4.12849 11.5429C4.12849 11.1707 3.82671 10.8689 3.45445 10.8689C3.08219 10.8689 2.78041 11.1707 2.78041 11.5429C2.78041 11.9152 3.08219 12.217 3.45445 12.217Z" stroke="#FFF8F2" stroke-width="1.5" stroke-linecap="round" stroke-linejoin="round"/>
</svg>
