<svg width="14" height="15" viewBox="0 0 14 15" fill="none" xmlns="http://www.w3.org/2000/svg">
<path d="M4.12609 0.758094V2.77968" stroke="black" stroke-width="1.5" stroke-miterlimit="10" stroke-linecap="round" stroke-linejoin="round"/>
<path d="M9.51961 0.758094V2.77968" stroke="black" stroke-width="1.5" stroke-miterlimit="10" stroke-linecap="round" stroke-linejoin="round"/>
<path d="M9.51829 1.76889C11.7623 1.89018 12.8876 2.74599 12.8876 5.91313V10.0776C12.8876 12.8539 12.2137 14.2421 8.84443 14.2421H4.80126C1.43196 14.2421 0.758094 12.8539 0.758094 10.0776V5.91313C0.758094 2.74599 1.88344 1.89692 4.1274 1.76889H9.51829Z" stroke="black" stroke-width="1.5" stroke-miterlimit="10" stroke-linecap="round" stroke-linejoin="round"/>
<path d="M12.7205 11.2702H0.927876" stroke="black" stroke-width="1.5" stroke-miterlimit="10" stroke-linecap="round" stroke-linejoin="round"/>
<path d="M6.82153 4.96956C5.99268 4.96956 5.29187 5.42105 5.29187 6.29707C5.29187 6.71487 5.48729 7.03158 5.78379 7.23374C5.37273 7.47633 5.13688 7.86717 5.13688 8.32539C5.13688 9.16098 5.77705 9.67986 6.82153 9.67986C7.85928 9.67986 8.50619 9.16098 8.50619 8.32539C8.50619 7.86717 8.27033 7.46959 7.85254 7.23374C8.15578 7.02484 8.34446 6.71487 8.34446 6.29707C8.34446 5.42105 7.65038 4.96956 6.82153 4.96956ZM6.82153 6.88333C6.47112 6.88333 6.21506 6.67443 6.21506 6.34424C6.21506 6.00731 6.47112 5.81189 6.82153 5.81189C7.17194 5.81189 7.42801 6.00731 7.42801 6.34424C7.42801 6.67443 7.17194 6.88333 6.82153 6.88333ZM6.82153 8.84427C6.37678 8.84427 6.05333 8.62189 6.05333 8.21758C6.05333 7.81326 6.37678 7.59762 6.82153 7.59762C7.26628 7.59762 7.58973 7.82 7.58973 8.21758C7.58973 8.62189 7.26628 8.84427 6.82153 8.84427Z" fill="black"/>
</svg>
